<svg width="60" height="60" viewBox="0 0 60 60" fill="none" xmlns="http://www.w3.org/2000/svg">
<path d="M13.125 28.125H50.625C51.1223 28.125 51.5992 28.3225 51.9508 28.6742C52.3025 29.0258 52.5 29.5027 52.5 30C52.5 30.4973 52.3025 30.9742 51.9508 31.3258C51.5992 31.6775 51.1223 31.875 50.625 31.875H13.125C12.6277 31.875 12.1508 31.6775 11.7992 31.3258C11.4475 30.9742 11.25 30.4973 11.25 30C11.25 29.5027 11.4475 29.0258 11.7992 28.6742C12.1508 28.3225 12.6277 28.125 13.125 28.125Z" fill="black"/>
<path d="M13.9012 29.9999L29.4525 45.5474C29.8046 45.8995 30.0024 46.377 30.0024 46.8749C30.0024 47.3728 29.8046 47.8504 29.4525 48.2024C29.1004 48.5545 28.6229 48.7523 28.125 48.7523C27.6271 48.7523 27.1496 48.5545 26.7975 48.2024L9.92249 31.3274C9.74788 31.1533 9.60935 30.9463 9.51482 30.7186C9.4203 30.4908 9.37164 30.2466 9.37164 29.9999C9.37164 29.7533 9.4203 29.5091 9.51482 29.2813C9.60935 29.0535 9.74788 28.8466 9.92249 28.6724L26.7975 11.7974C27.1496 11.4454 27.6271 11.2476 28.125 11.2476C28.6229 11.2476 29.1004 11.4454 29.4525 11.7974C29.8046 12.1495 30.0024 12.627 30.0024 13.1249C30.0024 13.6228 29.8046 14.1004 29.4525 14.4524L13.9012 29.9999Z" fill="black"/>
</svg>
