<svg width="60" height="60" viewBox="0 0 60 60" fill="none" xmlns="http://www.w3.org/2000/svg">
<path d="M45 20C45 16.0218 43.4196 12.2064 40.6066 9.3934C37.7936 6.58035 33.9782 5 30 5C26.0218 5 22.2064 6.58035 19.3934 9.3934C16.5804 12.2064 15 16.0218 15 20C15 37.5 7.5 42.5 7.5 42.5H52.5C52.5 42.5 45 37.5 45 20Z" stroke="#3C3D4E" stroke-width="5" stroke-linecap="round" stroke-linejoin="round"/>
<path d="M34.325 52.5C33.8855 53.2577 33.2547 53.8866 32.4956 54.3238C31.7366 54.761 30.876 54.9911 30 54.9911C29.1241 54.9911 28.2635 54.761 27.5045 54.3238C26.7454 53.8866 26.1146 53.2577 25.675 52.5" stroke="#3C3D4E" stroke-width="5" stroke-linecap="round" stroke-linejoin="round"/>
</svg>
