<svg width="60" height="60" viewBox="0 0 60 60" fill="none" xmlns="http://www.w3.org/2000/svg">
<g opacity="0.6" clip-path="url(#clip0_17_5)">
<path fill-rule="evenodd" clip-rule="evenodd" d="M56.25 18.75H3.75V7.5C3.75 5.43 5.43 3.75 7.5 3.75H18.75C20.82 3.75 22.5 5.43 22.5 7.5V11.25H52.5C54.57 11.25 56.25 12.93 56.25 15V18.75ZM56.25 52.5C56.25 54.57 54.57 56.25 52.5 56.25H7.5C5.43 56.25 3.75 54.57 3.75 52.5V22.5H56.25V52.5ZM52.5 7.5H26.25C26.25 3.35812 22.8919 0 18.75 0H7.5C3.35812 0 0 3.35812 0 7.5V52.5C0 56.6419 3.35812 60 7.5 60H52.5C56.6419 60 60 56.6419 60 52.5V15C60 10.8581 56.6419 7.5 52.5 7.5Z" fill="black"/>
</g>
<defs>
<clipPath id="clip0_17_5">
<rect width="60" height="60" fill="white"/>
</clipPath>
</defs>
</svg>
