<svg width="60" height="60" viewBox="0 0 60 60" fill="none" xmlns="http://www.w3.org/2000/svg">
<path d="M45 25H41.85C40.9147 21.3775 38.982 18.09 36.2716 15.511C33.5613 12.932 30.1818 11.165 26.5173 10.4107C22.8529 9.6564 19.0503 9.9451 15.5417 11.244C12.0331 12.5429 8.95913 14.7998 6.66916 17.7585C4.37919 20.7171 2.96501 24.2587 2.5873 27.9809C2.20959 31.7031 2.88351 35.4566 4.53247 38.8149C6.18143 42.1732 8.73932 45.0017 11.9155 46.9789C15.0916 48.9561 18.7587 50.0028 22.5 50H45C48.3152 50 51.4947 48.683 53.8389 46.3388C56.1831 43.9946 57.5 40.8152 57.5 37.5C57.5 34.1848 56.1831 31.0054 53.8389 28.6612C51.4947 26.317 48.3152 25 45 25Z" stroke="#3C3D4E" stroke-width="5" stroke-linecap="round" stroke-linejoin="round"/>
</svg>
