<svg width="60" height="60" viewBox="0 0 60 60" fill="none" xmlns="http://www.w3.org/2000/svg">
<path d="M30 52.5C25.55 52.5 21.1998 51.1805 17.4997 48.708C13.7996 46.2357 10.9157 42.7217 9.21272 38.6105C7.50975 34.499 7.06417 29.975 7.93235 25.6105C8.8005 21.2459 10.9434 17.2368 14.0901 14.0901C17.2368 10.9434 21.2459 8.8005 25.6105 7.93235C29.975 7.06417 34.499 7.50975 38.6105 9.21272C42.7217 10.9157 46.2357 13.7996 48.708 17.4997C51.1805 21.1998 52.5 25.55 52.5 30C52.5 35.9675 50.1295 41.6902 45.91 45.91C41.6902 50.1295 35.9675 52.5 30 52.5ZM30 11.25C26.2915 11.25 22.6665 12.3497 19.5831 14.4099C16.4996 16.4702 14.0964 19.3986 12.6773 22.8247C11.2581 26.2507 10.8868 30.0207 11.6103 33.658C12.3337 37.295 14.1195 40.636 16.7417 43.2582C19.364 45.8805 22.7049 47.6662 26.342 48.3897C29.9792 49.1132 33.7492 48.742 37.1752 47.3227C40.6015 45.9035 43.5297 43.5002 45.59 40.417C47.6502 37.3335 48.75 33.7085 48.75 30C48.75 25.0272 46.7745 20.2581 43.2582 16.7417C39.742 13.2254 34.9727 11.25 30 11.25Z" fill="black"/>
<path d="M30 32.5C29.5047 32.4935 29.0315 32.294 28.6812 31.9438C28.331 31.5935 28.1315 31.1203 28.125 30.625V21.875C28.125 21.3777 28.3225 20.9008 28.6742 20.5492C29.0257 20.1976 29.5028 20 30 20C30.4972 20 30.9743 20.1976 31.3258 20.5492C31.6775 20.9008 31.875 21.3777 31.875 21.875V30.625C31.8685 31.1203 31.669 31.5935 31.3188 31.9438C30.9685 32.294 30.4953 32.4935 30 32.5Z" fill="black"/>
<path d="M30 40C29.5047 39.9935 29.0315 39.794 28.6812 39.4438C28.331 39.0935 28.1315 38.6203 28.125 38.125V36.875C28.125 36.3778 28.3225 35.9007 28.6742 35.5492C29.0257 35.1975 29.5028 35 30 35C30.4972 35 30.9743 35.1975 31.3258 35.5492C31.6775 35.9007 31.875 36.3778 31.875 36.875V38.125C31.8685 38.6203 31.669 39.0935 31.3188 39.4438C30.9685 39.794 30.4953 39.9935 30 40Z" fill="black"/>
</svg>
