<svg width="60" height="60" viewBox="0 0 60 60" fill="none" xmlns="http://www.w3.org/2000/svg">
<g clip-path="url(#clip0_69_39)">
<path fill-rule="evenodd" clip-rule="evenodd" d="M28.0987 0.0563143C27.9075 0.0788143 27.255 0.146314 26.6512 0.206314C19.6275 0.907564 12.5512 4.53006 7.76624 9.87756C2.47499 15.7913 -0.213762 23.1301 0.033738 30.9488C0.464988 44.4526 9.74624 55.8863 22.9125 59.1413C30.6337 61.0501 39.1237 59.6888 45.8512 55.4663C52.5637 51.2476 57.2625 44.7488 59.1412 37.0763C59.7862 34.4476 59.9362 33.1088 59.9362 30.0001C59.9362 26.8913 59.7862 25.5526 59.1412 22.9238C56.1712 10.7926 46.1812 1.86756 33.75 0.240064C32.685 0.101314 28.8112 -0.0224357 28.0987 0.0563143ZM33.1987 5.86131C37.3762 6.40131 41.2875 8.01006 44.79 10.6276C46.0237 11.5501 48.45 13.9763 49.3725 15.2101C51.4762 18.0263 53.0325 21.3376 53.7375 24.5063C54.54 28.1251 54.54 31.8751 53.7375 35.4938C52.185 42.4726 47.2687 48.6676 40.7512 51.8551C38.3962 53.0063 35.9662 53.7601 33.3 54.1651C31.71 54.4088 28.29 54.4088 26.7 54.1651C19.395 53.0551 13.23 49.0688 9.34874 42.9413C8.54624 41.6776 7.49624 39.4726 6.97124 37.9463C6.06749 35.3326 5.67749 32.9288 5.67749 30.0001C5.67749 26.1038 6.43124 22.7813 8.09999 19.3501C9.37499 16.7326 10.6725 14.9251 12.7987 12.7988C14.925 10.6726 16.7325 9.37506 19.35 8.10006C23.6737 5.99631 28.3762 5.23881 33.1987 5.86131ZM28.8975 16.0876C28.0575 16.3613 27.5812 16.8413 27.3487 17.6438C27.2137 18.1013 27.1987 19.1476 27.2212 25.5601C27.2512 32.9476 27.2512 32.9513 27.4687 33.3601C27.7425 33.8738 28.2675 34.3388 28.7662 34.5151C29.2612 34.6876 30.7387 34.6876 31.2337 34.5151C31.7325 34.3388 32.2575 33.8738 32.5312 33.3601C32.7487 32.9513 32.7487 32.9476 32.7787 25.5601C32.8087 17.4901 32.8087 17.4826 32.235 16.8038C31.77 16.2488 31.2712 16.0651 30.15 16.0351C29.5987 16.0201 29.0362 16.0426 28.8975 16.0876ZM29.1975 39.4876C28.4887 39.7201 27.7875 40.3238 27.4462 40.9951C27.1837 41.5201 27.1387 42.4688 27.3525 43.1063C27.705 44.1751 28.8637 45.0001 30 45.0001C31.1362 45.0001 32.295 44.1751 32.6475 43.1063C32.8612 42.4688 32.8162 41.5201 32.5537 40.9951C32.31 40.5151 31.725 39.9226 31.2487 39.6751C30.8137 39.4501 29.64 39.3413 29.1975 39.4876Z" fill="#FF001F"/>
</g>
<defs>
<clipPath id="clip0_69_39">
<rect width="60" height="60" fill="white"/>
</clipPath>
</defs>
</svg>
