<svg width="60" height="60" viewBox="0 0 60 60" fill="none" xmlns="http://www.w3.org/2000/svg">
<path d="M57.5 10C57.5 5.85788 54.1423 2.5 50 2.5H40C38.6193 2.5 37.5 3.6193 37.5 5C37.5 6.3807 38.6193 7.5 40 7.5H50C51.3807 7.5 52.5 8.6193 52.5 10V20C52.5 21.3807 53.6193 22.5 55 22.5C56.3807 22.5 57.5 21.3807 57.5 20V10Z" fill="#0F0F0F"/>
<path d="M57.5 40C57.5 38.6193 56.3807 37.5 55 37.5C53.6193 37.5 52.5 38.6193 52.5 40V50C52.5 51.3807 51.3807 52.5 50 52.5H40C38.6193 52.5 37.5 53.6193 37.5 55C37.5 56.3807 38.6193 57.5 40 57.5H50C54.1423 57.5 57.5 54.1423 57.5 50V40Z" fill="#0F0F0F"/>
<path d="M10 52.5H20C21.3807 52.5 22.5 53.6193 22.5 55C22.5 56.3807 21.3807 57.5 20 57.5H10C5.85788 57.5 2.5 54.1423 2.5 50V40C2.5 38.6193 3.6193 37.5 5 37.5C6.3807 37.5 7.5 38.6193 7.5 40V50C7.5 51.3807 8.6193 52.5 10 52.5Z" fill="#0F0F0F"/>
<path d="M2.5 20C2.5 21.3807 3.6193 22.5 5 22.5C6.3807 22.5 7.5 21.3807 7.5 20V10C7.5 8.6193 8.6193 7.5 10 7.5H20C21.3807 7.5 22.5 6.3807 22.5 5C22.5 3.6193 21.3807 2.5 20 2.5H10C5.85788 2.5 2.5 5.85788 2.5 10V20Z" fill="#0F0F0F"/>
</svg>
