<svg width="60" height="60" viewBox="0 0 60 60" fill="none" xmlns="http://www.w3.org/2000/svg">
<g clip-path="url(#clip0_46_13)">
<path d="M30 2.5C24.561 2.5 19.2442 4.11284 14.7218 7.13458C10.1995 10.1563 6.67474 14.4512 4.59333 19.4762C2.51192 24.5012 1.96732 30.0305 3.02842 35.365C4.08951 40.6995 6.70863 45.5995 10.5546 49.4454C14.4005 53.2914 19.3006 55.9105 24.635 56.9716C29.9695 58.0327 35.4988 57.4881 40.5238 55.4067C45.5488 53.3253 49.8437 49.8005 52.8654 45.2782C55.8872 40.7558 57.5 35.439 57.5 30C57.5166 26.384 56.8166 22.8006 55.4404 19.4567C54.0643 16.1127 52.0393 13.0746 49.4824 10.5177C46.9254 7.96075 43.8873 5.93574 40.5434 4.5596C37.1994 3.18346 33.616 2.48345 30 2.5ZM30 52.5C25.5499 52.5 21.1998 51.1804 17.4997 48.7081C13.7996 46.2357 10.9157 42.7217 9.21272 38.6104C7.50975 34.499 7.06418 29.975 7.93234 25.6105C8.80051 21.2459 10.9434 17.2368 14.0901 14.0901C17.2368 10.9434 21.2459 8.8005 25.6105 7.93233C29.9751 7.06416 34.4991 7.50974 38.6104 9.21271C42.7217 10.9157 46.2357 13.7996 48.7081 17.4997C51.1804 21.1998 52.5 25.5499 52.5 30C52.4672 35.9572 50.0861 41.6612 45.8736 45.8736C41.6612 50.0861 35.9573 52.4672 30 52.5Z" fill="#3C3D4E"/>
<path d="M30 47.5H29.5L29 47.25H28.625L28.25 46.875L27.875 46.5C27.875 46.375 27.75 46.25 27.625 46.125C27.5 46 27.625 45.75 27.5 45.625V44.625C27.625 44.5 27.625 44.375 27.625 44.125C27.625 43.875 27.875 43.875 27.875 43.75L28.25 43.375C28.5264 43.0638 28.8798 42.8307 29.2747 42.699C29.6696 42.5674 30.0921 42.5419 30.5 42.625H31L31.375 42.875L31.75 43.25L32.125 43.625C32.125 43.75 32.25 43.875 32.25 44C32.25 44.125 32.375 44.375 32.5 44.5V45.5C32.375 45.625 32.375 45.75 32.25 46C32.125 46.25 32.125 46.25 32.125 46.375L31.75 46.75L31.375 47.125H31L30.5 47.375L30 47.5Z" fill="#3C3D4E"/>
<path d="M30.5 37.5H29.5C28.8875 37.2503 28.3989 36.7682 28.1412 36.159C27.8835 35.5499 27.8777 34.8634 28.125 34.25C28.9602 32.1179 30.5665 30.3778 32.625 29.375C33.8769 28.8764 34.9294 27.9788 35.6194 26.8214C36.3095 25.6639 36.5986 24.3113 36.442 22.9729C36.2854 21.6345 35.6918 20.3851 34.7531 19.4183C33.8145 18.4514 32.5832 17.8211 31.25 17.625C30.3362 17.4533 29.3965 17.4758 28.492 17.6912C27.5874 17.9065 26.7384 18.3099 26 18.875C25.3208 19.4714 24.7707 20.2004 24.3838 21.0173C23.9969 21.8342 23.7812 22.7216 23.75 23.625C23.75 24.288 23.4866 24.9239 23.0178 25.3928C22.5489 25.8616 21.913 26.125 21.25 26.125C20.587 26.125 19.9511 25.8616 19.4822 25.3928C19.0134 24.9239 18.75 24.288 18.75 23.625C18.7629 21.9907 19.1399 20.3799 19.8534 18.9096C20.567 17.4392 21.5992 16.1464 22.875 15.125C24.1534 14.041 25.6627 13.2635 27.2875 12.8519C28.9123 12.4403 30.6097 12.4054 32.25 12.75C34.5503 13.2103 36.6461 14.386 38.2381 16.109C39.83 17.832 40.8366 20.0142 41.1139 22.3436C41.3912 24.673 40.9251 27.0304 39.7821 29.079C38.6392 31.1276 36.8779 32.7625 34.75 33.75C33.8715 34.2239 33.1699 34.9694 32.75 35.875C32.5927 36.3476 32.2908 36.7587 31.8871 37.0504C31.4833 37.342 30.9981 37.4993 30.5 37.5Z" fill="#3C3D4E"/>
</g>
<defs>
<clipPath id="clip0_46_13">
<rect width="60" height="60" fill="white"/>
</clipPath>
</defs>
</svg>
