<svg xmlns="http://www.w3.org/2000/svg" style="display:none">

    <symbol id="gold" viewBox="0 0 24 24">
    <path d="M12 2L15 8H21L16 12L18 18L12 14L6 18L8 12L3 8H9Z"/>
    </symbol>

    <symbol id="book" viewBox="0 0 60 60">
        <svg width="60" height="60" viewBox="0 0 60 60" fill="none" xmlns="http://www.w3.org/2000/svg">
        <path d="M10 48.75C10 47.0924 10.6585 45.5027 11.8306 44.3306C13.0027 43.1585 14.5924 42.5 16.25 42.5H50" stroke="#064AEC" stroke-width="5" stroke-linecap="round" stroke-linejoin="round"/>
        <path d="M16.25 5H50V55H16.25C14.5924 55 13.0027 54.3415 11.8306 53.1694C10.6585 51.9973 10 50.4076 10 48.75V11.25C10 9.5924 10.6585 8.00269 11.8306 6.83058C13.0027 5.65848 14.5924 5 16.25 5Z" stroke="#064AEC" stroke-width="5" stroke-linecap="round" stroke-linejoin="round"/>
        </svg>
    </symbol>

    <symbol id="briefcase" viewBox="0 0 60 60">
        <svg width="60" height="60" viewBox="0 0 60 60" fill="none" xmlns="http://www.w3.org/2000/svg">
        <path d="M50 17.5H10C7.23858 17.5 5 19.7386 5 22.5V47.5C5 50.2614 7.23858 52.5 10 52.5H50C52.7614 52.5 55 50.2614 55 47.5V22.5C55 19.7386 52.7614 17.5 50 17.5Z" stroke="#064AEC" stroke-width="5" stroke-linecap="round" stroke-linejoin="round"/>
        <path d="M40 52.5V12.5C40 11.1739 39.4732 9.90215 38.5355 8.96447C37.5979 8.02678 36.3261 7.5 35 7.5H25C23.6739 7.5 22.4021 8.02678 21.4645 8.96447C20.5268 9.90215 20 11.1739 20 12.5V52.5" stroke="#064AEC" stroke-width="5" stroke-linecap="round" stroke-linejoin="round"/>
        </svg>
    </symbol>
    <symbol id="category" viewBox="0 0 65 59">
        <svg width="65" height="59" viewBox="0 0 65 59" fill="none" xmlns="http://www.w3.org/2000/svg">
        <path d="M62.5 50.5C62.5 52.0913 61.8679 53.6174 60.7426 54.7426C59.6174 55.8679 58.0913 56.5 56.5 56.5H8.5C6.9087 56.5 5.38258 55.8679 4.25736 54.7426C3.13214 53.6174 2.5 52.0913 2.5 50.5V8.5C2.5 6.9087 3.13214 5.38258 4.25736 4.25736C5.38258 3.13214 6.9087 2.5 8.5 2.5H23.5L29.5 11.5H56.5C58.0913 11.5 59.6174 12.1321 60.7426 13.2574C61.8679 14.3826 62.5 15.9087 62.5 17.5V50.5Z" stroke="#3C3D4E" stroke-width="5" stroke-linecap="round" stroke-linejoin="round"/>
        <line x1="0.496094" y1="22.5" x2="64.5039" y2="22.5" stroke="#3C3D4E" stroke-width="5"/>
        </svg>
    </symbol>

    <symbol id="clock" viewBox="0 0 60 60">
        <svg width="30" height="30" viewBox="0 0 60 60" fill="none" xmlns="http://www.w3.org/2000/svg">
        <path d="M30 17.5V30L36.25 33.75M52.5 30C52.5 42.4265 42.4265 52.5 30 52.5C17.5736 52.5 7.5 42.4265 7.5 30C7.5 17.5736 17.5736 7.5 30 7.5C42.4265 7.5 52.5 17.5736 52.5 30Z" stroke="#3C3D4E" stroke-width="5" stroke-linecap="round" stroke-linejoin="round"/>
        </svg>
    </symbol>
    <symbol id="empty" viewBox="0 0 60 60">
        <svg width="60" height="60" viewBox="0 0 60 60" fill="none" xmlns="http://www.w3.org/2000/svg">
        <path d="M30 52.5C25.55 52.5 21.1998 51.1805 17.4997 48.708C13.7996 46.2357 10.9157 42.7217 9.21272 38.6105C7.50975 34.499 7.06417 29.975 7.93235 25.6105C8.8005 21.2459 10.9434 17.2368 14.0901 14.0901C17.2368 10.9434 21.2459 8.8005 25.6105 7.93235C29.975 7.06417 34.499 7.50975 38.6105 9.21272C42.7217 10.9157 46.2357 13.7996 48.708 17.4997C51.1805 21.1998 52.5 25.55 52.5 30C52.5 35.9675 50.1295 41.6902 45.91 45.91C41.6902 50.1295 35.9675 52.5 30 52.5ZM30 11.25C26.2915 11.25 22.6665 12.3497 19.5831 14.4099C16.4996 16.4702 14.0964 19.3986 12.6773 22.8247C11.2581 26.2507 10.8868 30.0207 11.6103 33.658C12.3337 37.295 14.1195 40.636 16.7417 43.2582C19.364 45.8805 22.7049 47.6662 26.342 48.3897C29.9792 49.1132 33.7492 48.742 37.1752 47.3227C40.6015 45.9035 43.5297 43.5002 45.59 40.417C47.6502 37.3335 48.75 33.7085 48.75 30C48.75 25.0272 46.7745 20.2581 43.2582 16.7417C39.742 13.2254 34.9727 11.25 30 11.25Z" fill="black"/>
        <path d="M30 32.5C29.5047 32.4935 29.0315 32.294 28.6812 31.9438C28.331 31.5935 28.1315 31.1203 28.125 30.625V21.875C28.125 21.3777 28.3225 20.9008 28.6742 20.5492C29.0257 20.1976 29.5028 20 30 20C30.4972 20 30.9743 20.1976 31.3258 20.5492C31.6775 20.9008 31.875 21.3777 31.875 21.875V30.625C31.8685 31.1203 31.669 31.5935 31.3188 31.9438C30.9685 32.294 30.4953 32.4935 30 32.5Z" fill="black"/>
        <path d="M30 40C29.5047 39.9935 29.0315 39.794 28.6812 39.4438C28.331 39.0935 28.1315 38.6203 28.125 38.125V36.875C28.125 36.3778 28.3225 35.9007 28.6742 35.5492C29.0257 35.1975 29.5028 35 30 35C30.4972 35 30.9743 35.1975 31.3258 35.5492C31.6775 35.9007 31.875 36.3778 31.875 36.875V38.125C31.8685 38.6203 31.669 39.0935 31.3188 39.4438C30.9685 39.794 30.4953 39.9935 30 40Z" fill="black"/>
        </svg>

    </symbol>
    <symbol id="help" viewBox="0 0 60 60">
        <svg width="60" height="60" viewBox="0 0 60 60" fill="none" xmlns="http://www.w3.org/2000/svg">
        <g clip-path="url(#clip0_46_13)">
        <path d="M30 2.5C24.561 2.5 19.2442 4.11284 14.7218 7.13458C10.1995 10.1563 6.67474 14.4512 4.59333 19.4762C2.51192 24.5012 1.96732 30.0305 3.02842 35.365C4.08951 40.6995 6.70863 45.5995 10.5546 49.4454C14.4005 53.2914 19.3006 55.9105 24.635 56.9716C29.9695 58.0327 35.4988 57.4881 40.5238 55.4067C45.5488 53.3253 49.8437 49.8005 52.8654 45.2782C55.8872 40.7558 57.5 35.439 57.5 30C57.5166 26.384 56.8166 22.8006 55.4404 19.4567C54.0643 16.1127 52.0393 13.0746 49.4824 10.5177C46.9254 7.96075 43.8873 5.93574 40.5434 4.5596C37.1994 3.18346 33.616 2.48345 30 2.5ZM30 52.5C25.5499 52.5 21.1998 51.1804 17.4997 48.7081C13.7996 46.2357 10.9157 42.7217 9.21272 38.6104C7.50975 34.499 7.06418 29.975 7.93234 25.6105C8.80051 21.2459 10.9434 17.2368 14.0901 14.0901C17.2368 10.9434 21.2459 8.8005 25.6105 7.93233C29.9751 7.06416 34.4991 7.50974 38.6104 9.21271C42.7217 10.9157 46.2357 13.7996 48.7081 17.4997C51.1804 21.1998 52.5 25.5499 52.5 30C52.4672 35.9572 50.0861 41.6612 45.8736 45.8736C41.6612 50.0861 35.9573 52.4672 30 52.5Z" fill="#3C3D4E"/>
        <path d="M30 47.5H29.5L29 47.25H28.625L28.25 46.875L27.875 46.5C27.875 46.375 27.75 46.25 27.625 46.125C27.5 46 27.625 45.75 27.5 45.625V44.625C27.625 44.5 27.625 44.375 27.625 44.125C27.625 43.875 27.875 43.875 27.875 43.75L28.25 43.375C28.5264 43.0638 28.8798 42.8307 29.2747 42.699C29.6696 42.5674 30.0921 42.5419 30.5 42.625H31L31.375 42.875L31.75 43.25L32.125 43.625C32.125 43.75 32.25 43.875 32.25 44C32.25 44.125 32.375 44.375 32.5 44.5V45.5C32.375 45.625 32.375 45.75 32.25 46C32.125 46.25 32.125 46.25 32.125 46.375L31.75 46.75L31.375 47.125H31L30.5 47.375L30 47.5Z" fill="#3C3D4E"/>
        <path d="M30.5 37.5H29.5C28.8875 37.2503 28.3989 36.7682 28.1412 36.159C27.8835 35.5499 27.8777 34.8634 28.125 34.25C28.9602 32.1179 30.5665 30.3778 32.625 29.375C33.8769 28.8764 34.9294 27.9788 35.6194 26.8214C36.3095 25.6639 36.5986 24.3113 36.442 22.9729C36.2854 21.6345 35.6918 20.3851 34.7531 19.4183C33.8145 18.4514 32.5832 17.8211 31.25 17.625C30.3362 17.4533 29.3965 17.4758 28.492 17.6912C27.5874 17.9065 26.7384 18.3099 26 18.875C25.3208 19.4714 24.7707 20.2004 24.3838 21.0173C23.9969 21.8342 23.7812 22.7216 23.75 23.625C23.75 24.288 23.4866 24.9239 23.0178 25.3928C22.5489 25.8616 21.913 26.125 21.25 26.125C20.587 26.125 19.9511 25.8616 19.4822 25.3928C19.0134 24.9239 18.75 24.288 18.75 23.625C18.7629 21.9907 19.1399 20.3799 19.8534 18.9096C20.567 17.4392 21.5992 16.1464 22.875 15.125C24.1534 14.041 25.6627 13.2635 27.2875 12.8519C28.9123 12.4403 30.6097 12.4054 32.25 12.75C34.5503 13.2103 36.6461 14.386 38.2381 16.109C39.83 17.832 40.8366 20.0142 41.1139 22.3436C41.3912 24.673 40.9251 27.0304 39.7821 29.079C38.6392 31.1276 36.8779 32.7625 34.75 33.75C33.8715 34.2239 33.1699 34.9694 32.75 35.875C32.5927 36.3476 32.2908 36.7587 31.8871 37.0504C31.4833 37.342 30.9981 37.4993 30.5 37.5Z" fill="#3C3D4E"/>
        </g>
        <defs>
        <clipPath id="clip0_46_13">
        <rect width="60" height="60" fill="white"/>
        </clipPath>
        </defs>
        </svg>

    </symbol>

    <symbol id="logout" viewBox="0 0 60 60">
        <svg width="60" height="60" viewBox="0 0 60 60" fill="none" xmlns="http://www.w3.org/2000/svg">
        <path d="M22.5 10H15C12.2385 10 10 12.2386 10 15V45C10 47.7615 12.2385 50 15 50H22.5M40 20L50 30M50 30L40 40M50 30H20" stroke="red" stroke-width="3.75" stroke-linecap="round" stroke-linejoin="round"/>
        </svg>
    </symbol>
    <symbol id="more" viewBox="0 0 60 60">
        <svg width="60" height="60" viewBox="0 0 60 60" fill="none" xmlns="http://www.w3.org/2000/svg">
        <path fill-rule="evenodd" clip-rule="evenodd" d="M20.4 30C20.4 32.6511 18.251 34.8 15.6 34.8C12.9491 34.8 10.8 32.6511 10.8 30C10.8 27.349 12.9491 25.2 15.6 25.2C16.8731 25.2 18.094 25.7057 18.9942 26.6059C19.8943 27.5062 20.4 28.7271 20.4 30Z" stroke="#3C3D4E" stroke-width="3.6" stroke-linecap="round" stroke-linejoin="round"/>
        <path fill-rule="evenodd" clip-rule="evenodd" d="M34.8 30C34.8 32.6511 32.651 34.8 30 34.8C27.3489 34.8 25.2 32.6511 25.2 30C25.2 27.349 27.3489 25.2 30 25.2C32.651 25.2 34.8 27.349 34.8 30Z" stroke="#3C3D4E" stroke-width="3.6" stroke-linecap="round" stroke-linejoin="round"/>
        <path fill-rule="evenodd" clip-rule="evenodd" d="M49.2 30C49.2 32.6511 47.051 34.8 44.4 34.8C41.7489 34.8 39.6 32.6511 39.6 30C39.6 27.349 41.7489 25.2 44.4 25.2C47.051 25.2 49.2 27.349 49.2 30Z" stroke="#3C3D4E" stroke-width="3.6" stroke-linecap="round" stroke-linejoin="round"/>
        </svg>

    </symbol>
    <symbol id="note" viewBox="0 0 60 60">
        <svg width="60" height="60" viewBox="0 0 60 60" fill="none" xmlns="http://www.w3.org/2000/svg">
        <path d="M22.5 7.5V12.5M30 7.5V12.5M37.5 7.5V12.5M32.5 22.5H22.5M37.5 32.5H22.5M20.5 52.5H39.5C42.3003 52.5 43.7005 52.5 44.77 51.955C45.7108 51.4757 46.4757 50.7108 46.955 49.77C47.5 48.7005 47.5 47.3002 47.5 44.5V18C47.5 15.1997 47.5 13.7996 46.955 12.7301C46.4757 11.7892 45.7108 11.0243 44.77 10.545C43.7005 10 42.3003 10 39.5 10H20.5C17.6997 10 16.2996 10 15.2301 10.545C14.2892 11.0243 13.5243 11.7892 13.045 12.7301C12.5 13.7996 12.5 15.1997 12.5 18V44.5C12.5 47.3002 12.5 48.7005 13.045 49.77C13.5243 50.7108 14.2892 51.4757 15.2301 51.955C16.2996 52.5 17.6997 52.5 20.5 52.5Z" stroke="black" stroke-width="5" stroke-linecap="round" stroke-linejoin="round"/>
        </svg>
    </symbol>
    <symbol id="person" viewBox="0 0 60 69">
        <svg width="60" height="69" viewBox="0 0 60 69" fill="none" xmlns="http://www.w3.org/2000/svg">
        <path d="M30 27.4499C35.7679 27.4499 40.4438 22.7741 40.4438 17.0062C40.4438 11.2383 35.7679 6.56244 30 6.56244C24.2321 6.56244 19.5563 11.2383 19.5563 17.0062C19.5563 22.7741 24.2321 27.4499 30 27.4499Z" stroke="#6F40C0" stroke-width="5"/>
        <path d="M51.1406 57.2969C51.1406 51.69 48.9133 46.3128 44.9487 42.3482C40.984 38.3836 35.6068 36.1563 30 36.1562C24.3932 36.1563 19.016 38.3836 15.0513 42.3482C11.0867 46.3128 8.85938 51.69 8.85938 57.2969H51.1406Z" stroke="#6F40C0" stroke-width="5"/>
        </svg>
    </symbol>   
    <symbol id="favourite" viewBox="0 0 24 24">
        <svg width="20" height="2" viewBox="0 0 24 24" fill="#F1A501" xmlns="http://www.w3.org/2000/svg">
        <path d="M12 2L15.09 8.26L22 9.27L17 14.14L18.18 21.02L12 17.77L5.82 21.02L7 14.14L2 9.27L8.91 8.26L12 2Z" stroke="#F1A501" stroke-width="2" stroke-linecap="round" stroke-linejoin="round"/>
        </svg>
    </symbol>
    <symbol id="plus" viewBox="0 0 24 24">
        <svg width="24" height="24" viewBox="0 0 24 24" fill="none" xmlns="http://www.w3.org/2000/svg">
        <path d="M12 5V19" stroke="white" stroke-width="2" stroke-linecap="round" stroke-linejoin="round"/>
        <path d="M5 12H19" stroke="white" stroke-width="2" stroke-linecap="round" stroke-linejoin="round"/>
        </svg>

    </symbol>
    <symbol id="search" viewBox="0 0 60 60">
        <svg width="60" height="60" viewBox="0 0 60 60" fill="none" xmlns="http://www.w3.org/2000/svg">
        <path d="M39.4887 39.5278L52.5 52.5M45 26.25C45 36.6052 36.6052 45 26.25 45C15.8947 45 7.5 36.6052 7.5 26.25C7.5 15.8947 15.8947 7.5 26.25 7.5C36.6052 7.5 45 15.8947 45 26.25Z" stroke="#94A3B8" stroke-width="5" stroke-linecap="round" stroke-linejoin="round"/>
        </svg>

    </symbol>
    <symbol id='settings' viewBox="0 0 60 60">
        <svg width="60" height="60" viewBox="0 0 60 60" fill="none" xmlns="http://www.w3.org/2000/svg">
        <path fill-rule="evenodd" clip-rule="evenodd" d="M27.5437 47.5C26.6502 47.5 25.888 46.8367 25.7425 45.9325C25.6085 45.201 25.095 44.6033 24.4043 44.375C23.8414 44.1767 23.2911 43.943 22.7565 43.675C22.1204 43.3412 21.3572 43.3912 20.7675 43.805C20.0539 44.3312 19.0736 44.2497 18.4519 43.6125L16.0339 41.1325C15.3831 40.465 15.2986 39.4128 15.834 38.645C16.2469 38.0263 16.3064 37.2285 15.99 36.5525C15.7815 36.083 15.5976 35.6023 15.4391 35.1125C15.2121 34.3408 14.5855 33.7627 13.8133 33.6125C12.8822 33.46 12.1947 32.6397 12.1875 31.6725V28.57C12.1826 27.4553 12.9676 26.5017 14.04 26.32C14.8536 26.1612 15.5329 25.5897 15.8438 24.8025C15.9364 24.5808 16.0339 24.3608 16.1363 24.1425C16.5497 23.3261 16.4926 22.3428 15.9876 21.5825C15.356 20.6822 15.453 19.4452 16.2167 18.66L17.9936 16.8375C18.87 15.9383 20.2522 15.8219 21.2599 16.5625L21.3159 16.6025C22.0684 17.1219 23.0258 17.216 23.8607 16.8525C24.7539 16.5228 25.4122 15.7356 25.5937 14.78L25.6182 14.695C25.8187 13.4299 26.884 12.5005 28.1337 12.5H30.2787C31.562 12.4994 32.6572 13.4514 32.8672 14.75L32.9062 14.925C33.0785 15.8404 33.7027 16.5981 34.554 16.925C35.3745 17.2862 36.318 17.1919 37.055 16.675L37.1767 16.585C38.2105 15.8208 39.632 15.9384 40.5332 16.8625L42.1687 18.5425C42.9885 19.3879 43.0915 20.7173 42.4125 21.685C41.8805 22.4938 41.8127 23.5331 42.2345 24.4075L42.3395 24.6575C42.681 25.5112 43.4202 26.13 44.304 26.3025C45.4592 26.4957 46.3087 27.5173 46.3125 28.7175V31.5C46.3122 32.5585 45.5657 33.4615 44.5477 33.635C43.7105 33.7998 43.0285 34.4215 42.7707 35.255C42.657 35.5883 42.5302 35.9217 42.3905 36.255C42.0652 36.9875 42.1375 37.841 42.5807 38.505C43.1655 39.3395 43.0747 40.4858 42.3662 41.2125L40.097 43.5425C39.448 44.208 38.4245 44.2937 37.679 43.745C37.0565 43.3087 36.2502 43.2607 35.5827 43.62C35.107 43.8617 34.6187 44.0762 34.1202 44.2625C33.423 44.5092 32.909 45.1213 32.7747 45.865C32.6325 46.8008 31.8502 47.493 30.927 47.5H27.5437Z" stroke="#3C3D4E" stroke-width="3.75" stroke-linecap="round" stroke-linejoin="round"/>
        <path fill-rule="evenodd" clip-rule="evenodd" d="M34.9368 30C34.9368 33.2213 32.3908 35.8325 29.25 35.8325C26.1093 35.8325 23.5634 33.2213 23.5634 30C23.5634 26.7788 26.1093 24.1675 29.25 24.1675C32.3908 24.1675 34.9368 26.7788 34.9368 30Z" stroke="#3C3D4E" stroke-width="3.75" stroke-linecap="round" stroke-linejoin="round"/>
        </svg>

    </symbol>
    <symbol id="shopping" viewBox="0 0 60 60">
        <svg width="60" height="60" viewBox="0 0 60 60" fill="none" xmlns="http://www.w3.org/2000/svg">
        <path d="M22.5 55C23.8807 55 25 53.8807 25 52.5C25 51.1193 23.8807 50 22.5 50C21.1193 50 20 51.1193 20 52.5C20 53.8807 21.1193 55 22.5 55Z" stroke="#005F08" stroke-width="5" stroke-linecap="round" stroke-linejoin="round"/>
        <path d="M50 55C51.3807 55 52.5 53.8807 52.5 52.5C52.5 51.1193 51.3807 50 50 50C48.6193 50 47.5 51.1193 47.5 52.5C47.5 53.8807 48.6193 55 50 55Z" stroke="#005F08" stroke-width="5" stroke-linecap="round" stroke-linejoin="round"/>
        <path d="M2.5 2.5H12.5L19.2 35.975C19.4286 37.126 20.0548 38.1599 20.9689 38.8957C21.883 39.6316 23.0267 40.0225 24.2 40H48.5C49.6733 40.0225 50.817 39.6316 51.7311 38.8957C52.6452 38.1599 53.2714 37.126 53.5 35.975L57.5 15H15" stroke="#005F08" stroke-width="5" stroke-linecap="round" stroke-linejoin="round"/>
        </svg>

    </symbol>
    <symbol id="star" viewBox="0">
        <svg width="20" height="24" viewBox="0 0 24 24" fill="none" xmlns="http://www.w3.org/2000/svg">
        <path d="M12 2L15.09 8.26L22 9.27L17 14.14L18.18 21.02L12 17.77L5.82 21.02L7 14.14L2 9.27L8.91 8.26L12 2Z" stroke="#4D4E5E" stroke-width="2" stroke-linecap="round" stroke-linejoin="round"/>
        </svg>
    </symbol>
    <symbol id="success" viewBox="0 0 60 60" > 
        <svg width="60" height="60" viewBox="0 0 60 60" fill="none" xmlns="http://www.w3.org/2000/svg">
        <path d="M30 3.75C36.9619 3.75 43.6387 6.51562 48.5616 11.4384C53.4844 16.3613 56.25 23.0381 56.25 30C56.25 36.9619 53.4844 43.6387 48.5616 48.5616C43.6387 53.4844 36.9619 56.25 30 56.25C23.0381 56.25 16.3613 53.4844 11.4384 48.5616C6.51562 43.6387 3.75 36.9619 3.75 30C3.75 23.0381 6.51562 16.3613 11.4384 11.4384C16.3613 6.51562 23.0381 3.75 30 3.75ZM26.73 35.1787L20.8987 29.3437C20.6897 29.1347 20.4415 28.9689 20.1684 28.8557C19.8953 28.7426 19.6025 28.6844 19.3069 28.6844C19.0112 28.6844 18.7185 28.7426 18.4454 28.8557C18.1722 28.9689 17.924 29.1347 17.715 29.3437C17.2928 29.7659 17.0556 30.3386 17.0556 30.9356C17.0556 31.5327 17.2928 32.1053 17.715 32.5275L25.14 39.9525C25.3485 40.1626 25.5964 40.3293 25.8697 40.4431C26.1429 40.5569 26.4359 40.6155 26.7319 40.6155C27.0278 40.6155 27.3209 40.5569 27.5941 40.4431C27.8673 40.3293 28.1153 40.1626 28.3237 39.9525L43.6987 24.5737C43.9106 24.3656 44.0791 24.1175 44.1946 23.8439C44.3101 23.5702 44.3703 23.2764 44.3717 22.9794C44.373 22.6824 44.3156 22.3881 44.2027 22.1134C44.0897 21.8387 43.9235 21.5891 43.7136 21.3789C43.5037 21.1688 43.2543 21.0023 42.9797 20.889C42.7052 20.7757 42.4109 20.7179 42.1139 20.719C41.8169 20.72 41.523 20.7798 41.2492 20.895C40.9754 21.0102 40.7272 21.1784 40.5188 21.39L26.73 35.1787Z" fill="#005F08"/>
        </svg>
    </symbol>
    <symbol id='trash'>
        <svg width="24" height="24" viewBox="0 0 24 24" fill="none" xmlns="http://www.w3.org/2000/svg">
        <path d="M3 6H5H21" stroke="red" stroke-width="2" stroke-linecap="round" stroke-linejoin="round"/>
        <path d="M19 6V20C19 20.5304 18.7893 21.0391 18.4142 21.4142C18.0391 21.7893 17.5304 22 17 22H7C6.46957 22 5.96086 21.7893 5.58579 21.4142C5.21071 21.0391 5 20.5304 5 20V6M8 6V4C8 3.46957 8.21071 2.96086 8.58579 2.58579C8.96086 2.21071 9.46957 2 10 2H14C14.5304 2 15.0391 2.21071 15.4142 2.58579C15.7893 2.96086 16 3.46957 16 4V6" stroke="red" stroke-width="2" stroke-linecap="round" stroke-linejoin="round"/>
        <path d="M10 11V17" stroke="red" stroke-width="2" stroke-linecap="round" stroke-linejoin="round"/>
        <path d="M14 11V17" stroke="red" stroke-width="2" stroke-linecap="round" stroke-linejoin="round"/>
        </svg>
    </symbol>
    <symbol id="x" viewBox="0 0 24 24">

        <svg width="24" height="24" viewBox="0 0 24 24" fill="none" xmlns="http://www.w3.org/2000/svg">
        <path d="M18 6L6 18" stroke="grey" stroke-width="2" stroke-linecap="round" stroke-linejoin="round"/>
        <path d="M6 6L18 18" stroke="grey" stroke-width="2" stroke-linecap="round" stroke-linejoin="round"/>
        </svg>
    </symbol>   
</svg>