<svg width="60" height="45" viewBox="0 0 60 45" fill="none" xmlns="http://www.w3.org/2000/svg">
<g clip-path="url(#clip0_1_2)">
<path d="M30 24.125C31.4918 24.125 32.9226 24.7176 33.9775 25.7725C35.0324 26.8274 35.625 28.2582 35.625 29.75C35.625 31.2418 35.0324 32.6726 33.9775 33.7275C32.9226 34.7824 31.4918 35.375 30 35.375C28.5082 35.375 27.0774 34.7824 26.0225 33.7275C24.9676 32.6726 24.375 31.2418 24.375 29.75C24.375 28.2582 24.9676 26.8274 26.0225 25.7725C27.0774 24.7176 28.5082 24.125 30 24.125ZM54.375 24.125C55.8668 24.125 57.2976 24.7176 58.3525 25.7725C59.4074 26.8274 60 28.2582 60 29.75C60 31.2418 59.4074 32.6726 58.3525 33.7275C57.2976 34.7824 55.8668 35.375 54.375 35.375C52.8832 35.375 51.4524 34.7824 50.3975 33.7275C49.3426 32.6726 48.75 31.2418 48.75 29.75C48.75 28.2582 49.3426 26.8274 50.3975 25.7725C51.4524 24.7176 52.8832 24.125 54.375 24.125ZM5.625 24.125C7.11684 24.125 8.54758 24.7176 9.60248 25.7725C10.6574 26.8274 11.25 28.2582 11.25 29.75C11.25 31.2418 10.6574 32.6726 9.60248 33.7275C8.54758 34.7824 7.11684 35.375 5.625 35.375C4.13316 35.375 2.70242 34.7824 1.64752 33.7275C0.592632 32.6726 0 31.2418 0 29.75C0 28.2582 0.592632 26.8274 1.64752 25.7725C2.70242 24.7176 4.13316 24.125 5.625 24.125Z" fill="#5B5B5B"/>
<path d="M30 9C31.4918 9 32.9226 9.59263 33.9775 10.6475C35.0324 11.7024 35.625 13.1332 35.625 14.625C35.625 16.1168 35.0324 17.5476 33.9775 18.6025C32.9226 19.6574 31.4918 20.25 30 20.25C28.5082 20.25 27.0774 19.6574 26.0225 18.6025C24.9676 17.5476 24.375 16.1168 24.375 14.625C24.375 13.1332 24.9676 11.7024 26.0225 10.6475C27.0774 9.59263 28.5082 9 30 9ZM54.375 9C55.8668 9 57.2976 9.59263 58.3525 10.6475C59.4074 11.7024 60 13.1332 60 14.625C60 16.1168 59.4074 17.5476 58.3525 18.6025C57.2976 19.6574 55.8668 20.25 54.375 20.25C52.8832 20.25 51.4524 19.6574 50.3975 18.6025C49.3426 17.5476 48.75 16.1168 48.75 14.625C48.75 13.1332 49.3426 11.7024 50.3975 10.6475C51.4524 9.59263 52.8832 9 54.375 9ZM5.625 9C7.11684 9 8.54758 9.59263 9.60248 10.6475C10.6574 11.7024 11.25 13.1332 11.25 14.625C11.25 16.1168 10.6574 17.5476 9.60248 18.6025C8.54758 19.6574 7.11684 20.25 5.625 20.25C4.13316 20.25 2.70242 19.6574 1.64752 18.6025C0.592632 17.5476 0 16.1168 0 14.625C0 13.1332 0.592632 11.7024 1.64752 10.6475C2.70242 9.59263 4.13316 9 5.625 9Z" fill="#5B5B5B"/>
</g>
<defs>
<clipPath id="clip0_1_2">
<rect width="44.375" height="60" fill="white" transform="matrix(0 -1 1 0 0 44.375)"/>
</clipPath>
</defs>
</svg>
