<svg width="11" height="3" viewBox="0 0 11 3" fill="none" xmlns="http://www.w3.org/2000/svg">
<path d="M1.125 0C0.50475 0 0 0.50475 0 1.125C0 1.74525 0.50475 2.25 1.125 2.25C1.74525 2.25 2.25 1.74525 2.25 1.125C2.25 0.50475 1.74525 0 1.125 0Z" fill="#5B5B5B"/>
<path d="M5.375 0C4.75475 0 4.25 0.50475 4.25 1.125C4.25 1.74525 4.75475 2.25 5.375 2.25C5.99525 2.25 6.5 1.74525 6.5 1.125C6.5 0.50475 5.99525 0 5.375 0Z" fill="#5B5B5B"/>
<path d="M9.625 0C9.00475 0 8.5 0.50475 8.5 1.125C8.5 1.74525 9.00475 2.25 9.625 2.25C10.2453 2.25 10.75 1.74525 10.75 1.125C10.75 0.50475 10.2453 0 9.625 0Z" fill="#5B5B5B"/>
</svg>
