<svg width="60" height="60" viewBox="0 0 60 60" fill="none" xmlns="http://www.w3.org/2000/svg">
<path fill-rule="evenodd" clip-rule="evenodd" d="M20.4 30C20.4 32.6511 18.251 34.8 15.6 34.8C12.9491 34.8 10.8 32.6511 10.8 30C10.8 27.349 12.9491 25.2 15.6 25.2C16.8731 25.2 18.094 25.7057 18.9942 26.6059C19.8943 27.5062 20.4 28.7271 20.4 30Z" stroke="#3C3D4E" stroke-width="3.6" stroke-linecap="round" stroke-linejoin="round"/>
<path fill-rule="evenodd" clip-rule="evenodd" d="M34.8 30C34.8 32.6511 32.651 34.8 30 34.8C27.3489 34.8 25.2 32.6511 25.2 30C25.2 27.349 27.3489 25.2 30 25.2C32.651 25.2 34.8 27.349 34.8 30Z" stroke="#3C3D4E" stroke-width="3.6" stroke-linecap="round" stroke-linejoin="round"/>
<path fill-rule="evenodd" clip-rule="evenodd" d="M49.2 30C49.2 32.6511 47.051 34.8 44.4 34.8C41.7489 34.8 39.6 32.6511 39.6 30C39.6 27.349 41.7489 25.2 44.4 25.2C47.051 25.2 49.2 27.349 49.2 30Z" stroke="#3C3D4E" stroke-width="3.6" stroke-linecap="round" stroke-linejoin="round"/>
</svg>
