<svg width="60" height="60" viewBox="0 0 60 60" fill="none" xmlns="http://www.w3.org/2000/svg">
<path d="M22.5 7.5V12.5M30 7.5V12.5M37.5 7.5V12.5M32.5 22.5H22.5M37.5 32.5H22.5M20.5 52.5H39.5C42.3003 52.5 43.7005 52.5 44.77 51.955C45.7108 51.4757 46.4757 50.7108 46.955 49.77C47.5 48.7005 47.5 47.3002 47.5 44.5V18C47.5 15.1997 47.5 13.7996 46.955 12.7301C46.4757 11.7892 45.7108 11.0243 44.77 10.545C43.7005 10 42.3003 10 39.5 10H20.5C17.6997 10 16.2996 10 15.2301 10.545C14.2892 11.0243 13.5243 11.7892 13.045 12.7301C12.5 13.7996 12.5 15.1997 12.5 18V44.5C12.5 47.3002 12.5 48.7005 13.045 49.77C13.5243 50.7108 14.2892 51.4757 15.2301 51.955C16.2996 52.5 17.6997 52.5 20.5 52.5Z" stroke="black" stroke-width="5" stroke-linecap="round" stroke-linejoin="round"/>
</svg>
