<svg width="60" height="60" viewBox="0 0 60 60" fill="none" xmlns="http://www.w3.org/2000/svg">
<path fill-rule="evenodd" clip-rule="evenodd" d="M42.8045 4.67548C39.3932 1.26411 33.6948 1.91428 31.1395 6.00643L24.0265 17.3978C24.0265 17.3978 24.0228 17.4041 24.0095 17.4136C23.9932 17.4253 23.9584 17.4455 23.9 17.4619C23.7725 17.4978 23.6058 17.495 23.457 17.4399C21.0293 16.5399 16.8621 15.5512 12.5347 17.1812C10.2033 18.0594 9.0399 20.0805 8.91313 22.131C8.79218 24.0875 9.58233 26.0987 11.0356 27.5519L19.8744 36.3907L3.17433 53.0906C2.19802 54.0671 2.19802 55.6499 3.17433 56.6264C4.15063 57.6027 5.73355 57.6027 6.70985 56.6264L23.4099 39.9262L32.2487 48.7652C33.702 50.2184 35.7132 51.0087 37.6697 50.8877C39.7202 50.7609 41.7415 49.5974 42.6195 47.2662C44.2495 42.9387 43.2608 38.7714 42.361 36.3437C42.3058 36.1949 42.303 36.0284 42.3387 35.9007C42.3552 35.8424 42.3755 35.8077 42.3873 35.7912C42.3968 35.7779 42.4027 35.7744 42.4027 35.7744L53.7943 28.6612C57.8865 26.1059 58.5368 20.4076 55.1253 16.9962L42.8045 4.67548ZM35.3807 8.65468C36.2325 7.29063 38.132 7.0739 39.269 8.21103L51.5898 20.5318C52.7268 21.6689 52.5103 23.5683 51.146 24.4201L39.7548 31.5332C37.393 33.0079 36.8673 35.9092 37.6728 38.0817C38.3873 40.0092 38.9572 42.8042 37.9405 45.5037C37.871 45.6879 37.7938 45.7544 37.7463 45.7871C37.6858 45.8289 37.5665 45.8844 37.3612 45.8972C36.9175 45.9247 36.2837 45.7289 35.7842 45.2297L14.5712 24.0164C14.0718 23.5171 13.8761 22.8832 13.9036 22.4395C13.9163 22.2342 13.9719 22.115 14.0137 22.0544C14.0464 22.007 14.1129 21.9297 14.2972 21.8603C16.9967 20.8434 19.7915 21.4135 21.7191 22.1281C23.8917 22.9335 26.7928 22.4079 28.2678 20.046L35.3807 8.65468Z" fill="#0F0F0F"/>
</svg>
