<svg width="60" height="60" viewBox="0 0 60 60" fill="none" xmlns="http://www.w3.org/2000/svg">
<path d="M22.5 55C23.8807 55 25 53.8807 25 52.5C25 51.1193 23.8807 50 22.5 50C21.1193 50 20 51.1193 20 52.5C20 53.8807 21.1193 55 22.5 55Z" stroke="black" stroke-width="5" stroke-linecap="round" stroke-linejoin="round"/>
<path d="M50 55C51.3807 55 52.5 53.8807 52.5 52.5C52.5 51.1193 51.3807 50 50 50C48.6193 50 47.5 51.1193 47.5 52.5C47.5 53.8807 48.6193 55 50 55Z" stroke="black" stroke-width="5" stroke-linecap="round" stroke-linejoin="round"/>
<path d="M2.5 2.5H12.5L19.2 35.975C19.4286 37.126 20.0548 38.1599 20.9689 38.8957C21.883 39.6316 23.0267 40.0225 24.2 40H48.5C49.6733 40.0225 50.817 39.6316 51.7311 38.8957C52.6452 38.1599 53.2714 37.126 53.5 35.975L57.5 15H15" stroke="black" stroke-width="5" stroke-linecap="round" stroke-linejoin="round"/>
</svg>
