<svg width="38" height="40" viewBox="0 0 38 40" fill="none" xmlns="http://www.w3.org/2000/svg">
<path fill-rule="evenodd" clip-rule="evenodd" d="M1.79999 23.2904C1.82972 25.8956 2.89331 28.3824 4.75672 30.2036C6.6201 32.0247 9.13067 33.0308 11.736 33.0008H13.08L17.064 37.1576C17.4698 37.5687 18.0235 37.8 18.6012 37.8C19.1789 37.8 19.7325 37.5687 20.1384 37.1576L24.12 33.0008H25.464C28.0694 33.0308 30.5798 32.0247 32.4432 30.2036C34.3065 28.3824 35.3702 25.8956 35.4 23.2904V11.5063C35.3354 6.08285 30.8875 1.73805 25.464 1.80072H11.736C6.31249 1.73805 1.86455 6.08285 1.79999 11.5063V23.2904Z" stroke="black" stroke-width="3.6" stroke-linecap="round" stroke-linejoin="round"/>
<path d="M11.4 12.0005C10.4059 12.0005 9.59998 12.8064 9.59998 13.8005C9.59998 14.7946 10.4059 15.6005 11.4 15.6005V12.0005ZM25.8 15.6005C26.7941 15.6005 27.6 14.7946 27.6 13.8005C27.6 12.8064 26.7941 12.0005 25.8 12.0005V15.6005ZM11.4 19.2004C10.4059 19.2004 9.59998 20.0063 9.59998 21.0004C9.59998 21.9947 10.4059 22.8004 11.4 22.8004V19.2004ZM25.8 22.8004C26.7941 22.8004 27.6 21.9947 27.6 21.0004C27.6 20.0063 26.7941 19.2004 25.8 19.2004V22.8004ZM11.4 15.6005H25.8V12.0005H11.4V15.6005ZM11.4 22.8004H25.8V19.2004H11.4V22.8004Z" fill="black"/>
</svg>
